<svg xmlns="http://www.w3.org/2000/svg" width="51" height="51" viewBox="0 0 51 51">
    <g fill="none" fill-rule="evenodd" stroke-linecap="round" stroke-linejoin="round">
        <path stroke="#95BFAF" stroke-width="1.662" d="M17.955 29.386v-5.113M31.296 24.653L31.296 32.014 27.289 32.014M31.296 24.274h3.554M25.841 19.198l2.657 2.657M34.85 24.274L24.698 14.121 24.663 14.155 24.629 14.121 14.477 24.274 17.954 24.274" transform="translate(0 -1)"/>
        <g>
            <path stroke="#4A4A4A" stroke-width="1.8" d="M27.608 42.754c0-2.072.208-5.317.599-8.068M32.248 15.736c.458-1.347.998-2.376 1.646-3.478l1.164-1.979M33.074 14.004c3.87 1.732 6.64 1.396 8.734 0M14.477 30.772c-.867-2.824-3.229-7.521-5.493-10.372M23.449 35.709c-2.386-3.395-10.117-5.714-14.465-5.778" transform="translate(0 -1) translate(0 .967)"/>
            <path stroke="#95BFAF" stroke-width="1.662" d="M22.06 31.047V26.3c0-1.443 1.171-2.614 2.614-2.614 1.445 0 2.615 1.171 2.615 2.614v4.747" transform="translate(0 -1) translate(0 .967)"/>
            <path stroke="#4A4A4A" stroke-width="1.8" d="M19.817 36.9c1.554 1.244 2.797 2.834 2.886 5.855M25.484 50.1h0C11.907 50.1.9 39.094.9 25.517.9 11.94 11.907.933 25.484.933c13.576 0 24.583 11.007 24.583 24.584S39.06 50.1 25.484 50.1z" transform="translate(0 -1) translate(0 .967)"/>
        </g>
    </g>
</svg>
