<svg xmlns="http://www.w3.org/2000/svg" width="30" height="30" viewBox="0 0 30 30">
    <g fill="none" fill-rule="evenodd">
        <path fill="#F96F48" d="M14.5.5C6.769.5.5 6.768.5 14.5s6.269 14 14 14c7.732 0 14-6.268 14-14s-6.268-14-14-14" transform="translate(1 1)"/>
        <path stroke="#F96F48" d="M14.5.5C6.769.5.5 6.768.5 14.5s6.269 14 14 14c7.732 0 14-6.268 14-14s-6.268-14-14-14z" transform="translate(1 1)"/>
        <path stroke="#FFF" d="M17.896 11.103l-6.793 6.793M17.896 17.897l-6.793-6.793" transform="translate(1 1)"/>
    </g>
</svg>
