<?xml version="1.0" encoding="UTF-8"?>
<svg width="8px" height="17px" viewBox="0 0 8 17" version="1.1" xmlns="http://www.w3.org/2000/svg" xmlns:xlink="http://www.w3.org/1999/xlink">
    <!-- Generator: Sketch 54.1 (76490) - https://sketchapp.com -->
    <title>Group 7@1x</title>
    <desc>Created with Sketch.</desc>
    <defs>
        <polygon id="path-1" points="0 0.8513 7.533 0.8513 7.533 6.6758 0 6.6758"></polygon>
        <polygon id="path-3" points="0 0.1755 7.53286055 0.1755 7.53286055 6 0 6"></polygon>
    </defs>
    <g id="Welcome" stroke="none" stroke-width="1" fill="none" fill-rule="evenodd">
        <g id="Pickone改版預訂流程-Desktop-01" transform="translate(-682.000000, -209.000000)">
            <g id="Group" transform="translate(250.000000, 195.000000)">
                <g id="Group-7" transform="translate(432.000000, 13.000000)">
                    <g id="Group-3" transform="translate(0.000000, 0.148700)">
                        <mask id="mask-2" fill="white">
                            <use xlink:href="#path-1"></use>
                        </mask>
                        <g id="Clip-2"></g>
                        <path d="M0.0935,5.8368 L3.3225,1.0868 C3.5355,0.7728 3.9975,0.7728 4.2105,1.0868 L7.4395,5.8368 C7.6815,6.1928 7.4265,6.6758 6.9945,6.6758 L0.5375,6.6758 C0.1065,6.6758 -0.1485,6.1928 0.0935,5.8368" id="Fill-1" fill="#000000" mask="url(#mask-2)"></path>
                    </g>
                    <g id="Group-6" transform="translate(0.000000, 11.148700)">
                        <mask id="mask-4" fill="white">
                            <use xlink:href="#path-3"></use>
                        </mask>
                        <g id="Clip-5"></g>
                        <path d="M7.4392,1.0145 L4.2102,5.7645 C3.9972,6.0785 3.5352,6.0785 3.3222,5.7645 L0.0932,1.0145 C-0.1488,0.6585 0.1062,0.1755 0.5382,0.1755 L6.9952,0.1755 C7.4262,0.1755 7.6812,0.6585 7.4392,1.0145" id="Fill-4" fill="#000000" mask="url(#mask-4)"></path>
                    </g>
                </g>
            </g>
        </g>
    </g>
</svg>